# xmcd
#
# Track frame offsets: 
#        150
#        14085
#        30447
#        43427
#        55792
#        69422
#        82985
#        101072
#        110552
#        123057
#        139975
#        152480
#        163695
#        175695
#        186450
#        196350
#        216745
#        228952
#        240075
#        259077
#        273065
#        285672
#        299615
#        311175
#        321750
#
# Disc length: 4447 seconds
#
# Revision: 2
# Processed by: cddbd v1.5.1PL0 Copyright (c) Steve Scherf et al.
# Submitted via: ExactAudioCopy v0.95a5
#
DISCID=70115d19
DTITLE=Various Artist - 60's Best Selection
DYEAR=1900
DGENRE=Pop
TTITLE0=Simon and Garfunkel/The Sounds Of Silence
TTITLE1=The Righteous Brothers/Unchained Melody
TTITLE2=Simon and Garfunkel/When A Man Loves A Woman
TTITLE3=Simon and Garfunkel/My Girl
TTITLE4=Simon and Garfunkel/Oh, Pretty Woman
TTITLE5=Ben E King/Stand By Me
TTITLE6=Simon and Garfunkel/A Whiter Sade Of Pale
TTITLE7=Simon and Garfunkel/Yesterday
TTITLE8=Simon and Garfunkel/Love Me Tender
TTITLE9=Simon and Garfunkel/Satisfaction
TTITLE10=Simon and Garfunkel/I'm A Believer
TTITLE11=Simon and Garfunkel/Surfin' U.S.A
TTITLE12=Simon and Garfunkel/California Dreamin'
TTITLE13=Bee Gees/Massachusetts
TTITLE14=Simon and Garfunkel/Sealed With A Kiss
TTITLE15=Simon and Garfunkel/The House Of The Rising Sun
TTITLE16=Otis Redding/The Dock Of The Bay
TTITLE17=The Drifters/Save The Last Dance For Me
TTITLE18=Ray Charles/I Can't Stop Loving You
TTITLE19=Simon and Garfunkel/Green Green Grass Of The Home
TTITLE20=Bob Dylan/Blowin' In The Wind
TTITLE21=Simon and Garfunkel/Greenfields
TTITLE22=Diana Ross and Supremes/Where Did Our Love Go
TTITLE23=Louis Armstrong/What A Wonderful World
TTITLE24=The Platters/Only You
EXTD=
EXTT0=
EXTT1=
EXTT2=
EXTT3=
EXTT4=
EXTT5=
EXTT6=
EXTT7=
EXTT8=
EXTT9=
EXTT10=
EXTT11=
EXTT12=
EXTT13=
EXTT14=
EXTT15=
EXTT16=
EXTT17=
EXTT18=
EXTT19=
EXTT20=
EXTT21=
EXTT22=
EXTT23=
EXTT24=
PLAYORDER=
